  0
SECTION
  2
HEADER
  9
$ACADVER
  1
AC1014
  9
$HANDSEED
  5
FFFF
  9
$MEASUREMENT
 70
     1
  0
ENDSEC
  0
SECTION
  2
TABLES
  0
TABLE
  2
VPORT
  5
8
330
0
100
AcDbSymbolTable
 70
     4
  0
VPORT
  5
2E
330
8
100
AcDbSymbolTableRecord
100
AcDbViewportTableRecord
  2
*ACTIVE
 70
     0
 10
0.0
 20
0.0
 11
1.0
 21
1.0
 12
210.0
 22
148.5
 13
0.0
 23
0.0
 14
10.0
 24
10.0
 15
10.0
 25
10.0
 16
0.0
 26
0.0
 36
1.0
 17
0.0
 27
0.0
 37
0.0
 40
341.0
 41
1.24
 42
50.0
 43
0.0
 44
0.0
 50
0.0
 51
0.0
 71
     0
 72
   100
 73
     1
 74
     3
 75
     0
 76
     0
 77
     0
 78
     0
  0
ENDTAB
  0
TABLE
  2
LTYPE
  5
5
330
0
100
AcDbSymbolTable
 70
     1
  0
LTYPE
  5
14
330
5
100
AcDbSymbolTableRecord
100
AcDbLinetypeTableRecord
  2
BYBLOCK
 70
     0
  3

 72
    65
 73
     0
 40
0.0
  0
LTYPE
  5
15
330
5
100
AcDbSymbolTableRecord
100
AcDbLinetypeTableRecord
  2
BYLAYER
 70
     0
  3

 72
    65
 73
     0
 40
0.0
  0
LTYPE
  5
16
330
5
100
AcDbSymbolTableRecord
100
AcDbLinetypeTableRecord
  2
CONTINUOUS
 70
     0
  3
Solid line
 72
    65
 73
     0
 40
0.0
  0
ENDTAB
  0
TABLE
  2
LAYER
  5
2
100
AcDbSymbolTable
 70
2
  0
LAYER
  5
50
100
AcDbSymbolTableRecord
100
AcDbLayerTableRecord
  2
0
 70
0
  6
CONTINUOUS
  0
LAYER
  5
51
100
AcDbSymbolTableRecord
100
AcDbLayerTableRecord
  2
Layer_1
 70
0
  6
CONTINUOUS
  0
ENDTAB
  0
TABLE
  2
STYLE
  5
3
330
0
100
AcDbSymbolTable
 70
     1
  0
STYLE
  5
11
330
3
100
AcDbSymbolTableRecord
100
AcDbTextStyleTableRecord
  2
STANDARD
 70
     0
 40
0.0
 41
1.0
 50
0.0
 71
     0
 42
2.5
  3
txt
  4

  0
ENDTAB
  0
TABLE
  2
VIEW
  5
6
330
0
100
AcDbSymbolTable
 70
     0
  0
ENDTAB
  0
TABLE
  2
UCS
  5
7
330
0
100
AcDbSymbolTable
 70
     0
  0
ENDTAB
  0
TABLE
  2
APPID
  5
9
330
0
100
AcDbSymbolTable
 70
     2
  0
APPID
  5
12
330
9
100
AcDbSymbolTableRecord
100
AcDbRegAppTableRecord
  2
ACAD
 70
     0
  0
ENDTAB
  0
TABLE
  2
DIMSTYLE
  5
A
330
0
100
AcDbSymbolTable
 70
     1
  0
DIMSTYLE
105
27
330
A
100
AcDbSymbolTableRecord
100
AcDbDimStyleTableRecord
  2
ISO-25
 70
     0
  3

  4

  5

  6

  7

 40
1.0
 41
2.5
 42
0.625
 43
3.75
 44
1.25
 45
0.0
 46
0.0
 47
0.0
 48
0.0
140
2.5
141
2.5
142
0.0
143
0.03937007874016
144
1.0
145
0.0
146
1.0
147
0.625
 71
     0
 72
     0
 73
     0
 74
     0
 75
     0
 76
     0
 77
     1
 78
     8
170
     0
171
     3
172
     1
173
     0
174
     0
175
     0
176
     0
177
     0
178
     0
270
     2
271
     2
272
     2
273
     2
274
     3
340
11
275
     0
280
     0
281
     0
282
     0
283
     0
284
     8
285
     0
286
     0
287
     3
288
     0
  0
ENDTAB
  0
TABLE
  2
BLOCK_RECORD
  5
1
330
0
100
AcDbSymbolTable
 70
     1
  0
BLOCK_RECORD
  5
1F
330
1
100
AcDbSymbolTableRecord
100
AcDbBlockTableRecord
  2
*MODEL_SPACE
  0
BLOCK_RECORD
  5
1B
330
1
100
AcDbSymbolTableRecord
100
AcDbBlockTableRecord
  2
*PAPER_SPACE
  0
ENDTAB
  0
ENDSEC
  0
SECTION
  2
BLOCKS
  0
BLOCK
  5
20
330
1F
100
AcDbEntity
  8
0
100
AcDbBlockBegin
  2
*MODEL_SPACE
 70
     0
 10
0.0
 20
0.0
 30
0.0
  3
*MODEL_SPACE
  1

  0
ENDBLK
  5
21
330
1F
100
AcDbEntity
  8
0
100
AcDbBlockEnd
  0
BLOCK
  5
1C
330
1B
100
AcDbEntity
 67
     1
  8
0
100
AcDbBlockBegin
  2
*PAPER_SPACE
  1

  0
ENDBLK
  5
1D
330
1B
100
AcDbEntity
 67
     1
  8
0
100
AcDbBlockEnd
  0
ENDSEC
  0
SECTION
  2
ENTITIES
  0
LWPOLYLINE
  5
100
100
AcDbEntity
  8
Layer_1
 62
7
100
AcDbPolyline
 90
6
 70
0
 10
-14.166667
 20
121.604226
 30
0.0
 10
225.833333
 20
121.604226
 30
0.0
 10
225.833333
 20
171.906899
 30
0.0
 10
-14.166667
 20
171.906899
 30
0.0
 10
-14.166667
 20
121.604226
 30
0.0
 10
-14.166667
 20
121.604226
 30
0.0
  0
LWPOLYLINE
  5
101
100
AcDbEntity
  8
Layer_1
 62
7
100
AcDbPolyline
 90
6
 70
0
 10
69.831083
 20
136.947897
 30
0.0
 10
141.831083
 20
136.947897
 30
0.0
 10
141.831083
 20
164.447899
 30
0.0
 10
69.831083
 20
164.447899
 30
0.0
 10
69.831083
 20
136.947897
 30
0.0
 10
69.831083
 20
136.947897
 30
0.0
  0
LWPOLYLINE
  5
102
100
AcDbEntity
  8
Layer_1
 62
7
100
AcDbPolyline
 90
6
 70
0
 10
87.438078
 20
133.188065
 30
0.0
 10
132.963991
 20
133.188065
 30
0.0
 10
132.963991
 20
125.368449
 30
0.0
 10
87.438078
 20
125.368449
 30
0.0
 10
87.438078
 20
133.188065
 30
0.0
 10
87.438078
 20
133.188065
 30
0.0
  0
LWPOLYLINE
  5
103
100
AcDbEntity
  8
Layer_1
 62
7
100
AcDbPolyline
 90
2
 70
0
 10
99.114175
 20
125.368449
 30
0.0
 10
99.114175
 20
133.188065
 30
0.0
  0
LWPOLYLINE
  5
104
100
AcDbEntity
  8
Layer_1
 62
7
100
AcDbPolyline
 90
2
 70
0
 10
109.505287
 20
125.334724
 30
0.0
 10
109.505287
 20
133.188065
 30
0.0
  0
LWPOLYLINE
  5
105
100
AcDbEntity
  8
Layer_1
 62
7
100
AcDbPolyline
 90
2
 70
0
 10
121.728540
 20
125.368449
 30
0.0
 10
121.728540
 20
133.188065
 30
0.0
  0
LWPOLYLINE
  5
106
100
AcDbEntity
  8
Layer_1
 62
7
100
AcDbPolyline
 90
6
 70
0
 10
67.095003
 20
135.541234
 30
0.0
 10
59.329103
 20
135.541234
 30
0.0
 10
59.329103
 20
148.041511
 30
0.0
 10
67.095003
 20
148.041511
 30
0.0
 10
67.095003
 20
135.541234
 30
0.0
 10
67.095003
 20
135.541234
 30
0.0
  0
SPLINE
  5
107
100
AcDbEntity
  8
Layer_1
 62
7
100
AcDbSpline
 70
8
 71
3
 72
8
 73
4
 74
0
 40
0
 40
0
 40
0
 40
0
 40
1
 40
1
 40
1
 40
1
 10
95.039609
 20
129.329607
 30
0.0
 10
95.039609
 20
129.936959
 30
0.0
 10
94.715591
 20
130.498176
 30
0.0
 10
94.189609
 20
130.801852
 30
0.0
  0
SPLINE
  5
108
100
AcDbEntity
  8
Layer_1
 62
7
100
AcDbSpline
 70
8
 71
3
 72
8
 73
4
 74
0
 40
0
 40
0
 40
0
 40
0
 40
1
 40
1
 40
1
 40
1
 10
94.189609
 20
130.801852
 30
0.0
 10
93.663626
 20
131.105527
 30
0.0
 10
93.015590
 20
131.105527
 30
0.0
 10
92.489608
 20
130.801852
 30
0.0
  0
SPLINE
  5
109
100
AcDbEntity
  8
Layer_1
 62
7
100
AcDbSpline
 70
8
 71
3
 72
8
 73
4
 74
0
 40
0
 40
0
 40
0
 40
0
 40
1
 40
1
 40
1
 40
1
 10
92.489608
 20
130.801852
 30
0.0
 10
91.963626
 20
130.498176
 30
0.0
 10
91.639607
 20
129.936959
 30
0.0
 10
91.639607
 20
129.329607
 30
0.0
  0
SPLINE
  5
10a
100
AcDbEntity
  8
Layer_1
 62
7
100
AcDbSpline
 70
8
 71
3
 72
8
 73
4
 74
0
 40
0
 40
0
 40
0
 40
0
 40
1
 40
1
 40
1
 40
1
 10
91.639607
 20
129.329607
 30
0.0
 10
91.639607
 20
128.722256
 30
0.0
 10
91.963626
 20
128.161039
 30
0.0
 10
92.489608
 20
127.857363
 30
0.0
  0
SPLINE
  5
10b
100
AcDbEntity
  8
Layer_1
 62
7
100
AcDbSpline
 70
8
 71
3
 72
8
 73
4
 74
0
 40
0
 40
0
 40
0
 40
0
 40
1
 40
1
 40
1
 40
1
 10
92.489608
 20
127.857363
 30
0.0
 10
93.015590
 20
127.553688
 30
0.0
 10
93.663626
 20
127.553688
 30
0.0
 10
94.189609
 20
127.857363
 30
0.0
  0
SPLINE
  5
10c
100
AcDbEntity
  8
Layer_1
 62
7
100
AcDbSpline
 70
8
 71
3
 72
8
 73
4
 74
0
 40
0
 40
0
 40
0
 40
0
 40
1
 40
1
 40
1
 40
1
 10
94.189609
 20
127.857363
 30
0.0
 10
94.715591
 20
128.161039
 30
0.0
 10
95.039609
 20
128.722256
 30
0.0
 10
95.039609
 20
129.329607
 30
0.0
  0
LWPOLYLINE
  5
10d
100
AcDbEntity
  8
Layer_1
 62
7
100
AcDbPolyline
 90
2
 70
0
 10
59.329103
 20
141.583699
 30
0.0
 10
67.095003
 20
141.583699
 30
0.0
  0
SPLINE
  5
10e
100
AcDbEntity
  8
Layer_1
 62
7
100
AcDbSpline
 70
8
 71
3
 72
8
 73
4
 74
0
 40
0
 40
0
 40
0
 40
0
 40
1
 40
1
 40
1
 40
1
 10
117.880869
 20
129.329607
 30
0.0
 10
117.881365
 20
129.937289
 30
0.0
 10
117.557455
 20
130.499021
 30
0.0
 10
117.031270
 20
130.803005
 30
0.0
  0
SPLINE
  5
10f
100
AcDbEntity
  8
Layer_1
 62
7
100
AcDbSpline
 70
8
 71
3
 72
8
 73
4
 74
0
 40
0
 40
0
 40
0
 40
0
 40
1
 40
1
 40
1
 40
1
 10
117.031270
 20
130.803005
 30
0.0
 10
116.505085
 20
131.106989
 30
0.0
 10
115.856655
 20
131.106989
 30
0.0
 10
115.330470
 20
130.803005
 30
0.0
  0
SPLINE
  5
110
100
AcDbEntity
  8
Layer_1
 62
7
100
AcDbSpline
 70
8
 71
3
 72
8
 73
4
 74
0
 40
0
 40
0
 40
0
 40
0
 40
1
 40
1
 40
1
 40
1
 10
115.330470
 20
130.803005
 30
0.0
 10
114.804285
 20
130.499021
 30
0.0
 10
114.480375
 20
129.937289
 30
0.0
 10
114.480871
 20
129.329607
 30
0.0
  0
SPLINE
  5
111
100
AcDbEntity
  8
Layer_1
 62
7
100
AcDbSpline
 70
8
 71
3
 72
8
 73
4
 74
0
 40
0
 40
0
 40
0
 40
0
 40
1
 40
1
 40
1
 40
1
 10
114.480871
 20
129.329607
 30
0.0
 10
114.480375
 20
128.721926
 30
0.0
 10
114.804285
 20
128.160194
 30
0.0
 10
115.330470
 20
127.856210
 30
0.0
  0
SPLINE
  5
112
100
AcDbEntity
  8
Layer_1
 62
7
100
AcDbSpline
 70
8
 71
3
 72
8
 73
4
 74
0
 40
0
 40
0
 40
0
 40
0
 40
1
 40
1
 40
1
 40
1
 10
115.330470
 20
127.856210
 30
0.0
 10
115.856655
 20
127.552226
 30
0.0
 10
116.505085
 20
127.552226
 30
0.0
 10
117.031270
 20
127.856210
 30
0.0
  0
SPLINE
  5
113
100
AcDbEntity
  8
Layer_1
 62
7
100
AcDbSpline
 70
8
 71
3
 72
8
 73
4
 74
0
 40
0
 40
0
 40
0
 40
0
 40
1
 40
1
 40
1
 40
1
 10
117.031270
 20
127.856210
 30
0.0
 10
117.557455
 20
128.160194
 30
0.0
 10
117.881365
 20
128.721926
 30
0.0
 10
117.880869
 20
129.329607
 30
0.0
  0
LWPOLYLINE
  5
114
100
AcDbEntity
  8
Layer_1
 62
7
100
AcDbPolyline
 90
2
 70
0
 10
95.039609
 20
129.329607
 30
0.0
 10
95.039609
 20
129.329607
 30
0.0
  0
SPLINE
  5
115
100
AcDbEntity
  8
Layer_1
 62
7
100
AcDbSpline
 70
8
 71
3
 72
8
 73
4
 74
0
 40
0
 40
0
 40
0
 40
0
 40
1
 40
1
 40
1
 40
1
 10
106.439301
 20
129.329607
 30
0.0
 10
106.439796
 20
129.937289
 30
0.0
 10
106.115887
 20
130.499021
 30
0.0
 10
105.589702
 20
130.803005
 30
0.0
  0
SPLINE
  5
116
100
AcDbEntity
  8
Layer_1
 62
7
100
AcDbSpline
 70
8
 71
3
 72
8
 73
4
 74
0
 40
0
 40
0
 40
0
 40
0
 40
1
 40
1
 40
1
 40
1
 10
105.589702
 20
130.803005
 30
0.0
 10
105.063517
 20
131.106989
 30
0.0
 10
104.415087
 20
131.106989
 30
0.0
 10
103.888902
 20
130.803005
 30
0.0
  0
SPLINE
  5
117
100
AcDbEntity
  8
Layer_1
 62
7
100
AcDbSpline
 70
8
 71
3
 72
8
 73
4
 74
0
 40
0
 40
0
 40
0
 40
0
 40
1
 40
1
 40
1
 40
1
 10
103.888902
 20
130.803005
 30
0.0
 10
103.362717
 20
130.499021
 30
0.0
 10
103.038807
 20
129.937289
 30
0.0
 10
103.039302
 20
129.329607
 30
0.0
  0
SPLINE
  5
118
100
AcDbEntity
  8
Layer_1
 62
7
100
AcDbSpline
 70
8
 71
3
 72
8
 73
4
 74
0
 40
0
 40
0
 40
0
 40
0
 40
1
 40
1
 40
1
 40
1
 10
103.039302
 20
129.329607
 30
0.0
 10
103.038807
 20
128.721926
 30
0.0
 10
103.362717
 20
128.160194
 30
0.0
 10
103.888902
 20
127.856210
 30
0.0
  0
SPLINE
  5
119
100
AcDbEntity
  8
Layer_1
 62
7
100
AcDbSpline
 70
8
 71
3
 72
8
 73
4
 74
0
 40
0
 40
0
 40
0
 40
0
 40
1
 40
1
 40
1
 40
1
 10
103.888902
 20
127.856210
 30
0.0
 10
104.415087
 20
127.552226
 30
0.0
 10
105.063517
 20
127.552226
 30
0.0
 10
105.589702
 20
127.856210
 30
0.0
  0
SPLINE
  5
11a
100
AcDbEntity
  8
Layer_1
 62
7
100
AcDbSpline
 70
8
 71
3
 72
8
 73
4
 74
0
 40
0
 40
0
 40
0
 40
0
 40
1
 40
1
 40
1
 40
1
 10
105.589702
 20
127.856210
 30
0.0
 10
106.115887
 20
128.160194
 30
0.0
 10
106.439796
 20
128.721926
 30
0.0
 10
106.439301
 20
129.329607
 30
0.0
  0
LWPOLYLINE
  5
11b
100
AcDbEntity
  8
Layer_1
 62
7
100
AcDbPolyline
 90
2
 70
0
 10
117.880869
 20
129.329607
 30
0.0
 10
117.880869
 20
129.329607
 30
0.0
  0
SPLINE
  5
11c
100
AcDbEntity
  8
Layer_1
 62
7
100
AcDbSpline
 70
8
 71
3
 72
8
 73
4
 74
0
 40
0
 40
0
 40
0
 40
0
 40
1
 40
1
 40
1
 40
1
 10
129.238702
 20
129.329607
 30
0.0
 10
129.239198
 20
129.937289
 30
0.0
 10
128.915288
 20
130.499021
 30
0.0
 10
128.389103
 20
130.803005
 30
0.0
  0
SPLINE
  5
11d
100
AcDbEntity
  8
Layer_1
 62
7
100
AcDbSpline
 70
8
 71
3
 72
8
 73
4
 74
0
 40
0
 40
0
 40
0
 40
0
 40
1
 40
1
 40
1
 40
1
 10
128.389103
 20
130.803005
 30
0.0
 10
127.862918
 20
131.106989
 30
0.0
 10
127.214488
 20
131.106989
 30
0.0
 10
126.688303
 20
130.803005
 30
0.0
  0
SPLINE
  5
11e
100
AcDbEntity
  8
Layer_1
 62
7
100
AcDbSpline
 70
8
 71
3
 72
8
 73
4
 74
0
 40
0
 40
0
 40
0
 40
0
 40
1
 40
1
 40
1
 40
1
 10
126.688303
 20
130.803005
 30
0.0
 10
126.162118
 20
130.499021
 30
0.0
 10
125.838208
 20
129.937289
 30
0.0
 10
125.838704
 20
129.329607
 30
0.0
  0
SPLINE
  5
11f
100
AcDbEntity
  8
Layer_1
 62
7
100
AcDbSpline
 70
8
 71
3
 72
8
 73
4
 74
0
 40
0
 40
0
 40
0
 40
0
 40
1
 40
1
 40
1
 40
1
 10
125.838704
 20
129.329607
 30
0.0
 10
125.838208
 20
128.721926
 30
0.0
 10
126.162118
 20
128.160194
 30
0.0
 10
126.688303
 20
127.856210
 30
0.0
  0
SPLINE
  5
120
100
AcDbEntity
  8
Layer_1
 62
7
100
AcDbSpline
 70
8
 71
3
 72
8
 73
4
 74
0
 40
0
 40
0
 40
0
 40
0
 40
1
 40
1
 40
1
 40
1
 10
126.688303
 20
127.856210
 30
0.0
 10
127.214488
 20
127.552226
 30
0.0
 10
127.862918
 20
127.552226
 30
0.0
 10
128.389103
 20
127.856210
 30
0.0
  0
SPLINE
  5
121
100
AcDbEntity
  8
Layer_1
 62
7
100
AcDbSpline
 70
8
 71
3
 72
8
 73
4
 74
0
 40
0
 40
0
 40
0
 40
0
 40
1
 40
1
 40
1
 40
1
 10
128.389103
 20
127.856210
 30
0.0
 10
128.915288
 20
128.160194
 30
0.0
 10
129.239198
 20
128.721926
 30
0.0
 10
129.238702
 20
129.329607
 30
0.0
  0
LWPOLYLINE
  5
122
100
AcDbEntity
  8
Layer_1
 62
7
100
AcDbPolyline
 90
2
 70
0
 10
106.439301
 20
129.329607
 30
0.0
 10
106.439301
 20
129.329607
 30
0.0
  0
SPLINE
  5
123
100
AcDbEntity
  8
Layer_1
 62
7
100
AcDbSpline
 70
8
 71
3
 72
8
 73
4
 74
0
 40
0
 40
0
 40
0
 40
0
 40
1
 40
1
 40
1
 40
1
 10
64.880561
 20
143.692627
 30
0.0
 10
64.880561
 20
144.299979
 30
0.0
 10
64.556542
 20
144.861195
 30
0.0
 10
64.030560
 20
145.164871
 30
0.0
  0
SPLINE
  5
124
100
AcDbEntity
  8
Layer_1
 62
7
100
AcDbSpline
 70
8
 71
3
 72
8
 73
4
 74
0
 40
0
 40
0
 40
0
 40
0
 40
1
 40
1
 40
1
 40
1
 10
64.030560
 20
145.164871
 30
0.0
 10
63.504578
 20
145.468547
 30
0.0
 10
62.856541
 20
145.468547
 30
0.0
 10
62.330559
 20
145.164871
 30
0.0
  0
SPLINE
  5
125
100
AcDbEntity
  8
Layer_1
 62
7
100
AcDbSpline
 70
8
 71
3
 72
8
 73
4
 74
0
 40
0
 40
0
 40
0
 40
0
 40
1
 40
1
 40
1
 40
1
 10
62.330559
 20
145.164871
 30
0.0
 10
61.804577
 20
144.861195
 30
0.0
 10
61.480559
 20
144.299979
 30
0.0
 10
61.480559
 20
143.692627
 30
0.0
  0
SPLINE
  5
126
100
AcDbEntity
  8
Layer_1
 62
7
100
AcDbSpline
 70
8
 71
3
 72
8
 73
4
 74
0
 40
0
 40
0
 40
0
 40
0
 40
1
 40
1
 40
1
 40
1
 10
61.480559
 20
143.692627
 30
0.0
 10
61.480559
 20
143.085275
 30
0.0
 10
61.804577
 20
142.524059
 30
0.0
 10
62.330559
 20
142.220383
 30
0.0
  0
SPLINE
  5
127
100
AcDbEntity
  8
Layer_1
 62
7
100
AcDbSpline
 70
8
 71
3
 72
8
 73
4
 74
0
 40
0
 40
0
 40
0
 40
0
 40
1
 40
1
 40
1
 40
1
 10
62.330559
 20
142.220383
 30
0.0
 10
62.856541
 20
141.916707
 30
0.0
 10
63.504578
 20
141.916707
 30
0.0
 10
64.030560
 20
142.220383
 30
0.0
  0
SPLINE
  5
128
100
AcDbEntity
  8
Layer_1
 62
7
100
AcDbSpline
 70
8
 71
3
 72
8
 73
4
 74
0
 40
0
 40
0
 40
0
 40
0
 40
1
 40
1
 40
1
 40
1
 10
64.030560
 20
142.220383
 30
0.0
 10
64.556542
 20
142.524059
 30
0.0
 10
64.880561
 20
143.085275
 30
0.0
 10
64.880561
 20
143.692627
 30
0.0
  0
LWPOLYLINE
  5
129
100
AcDbEntity
  8
Layer_1
 62
7
100
AcDbPolyline
 90
2
 70
0
 10
129.238702
 20
129.329607
 30
0.0
 10
129.238702
 20
129.329607
 30
0.0
  0
SPLINE
  5
12a
100
AcDbEntity
  8
Layer_1
 62
7
100
AcDbSpline
 70
8
 71
3
 72
8
 73
4
 74
0
 40
0
 40
0
 40
0
 40
0
 40
1
 40
1
 40
1
 40
1
 10
64.880561
 20
139.484496
 30
0.0
 10
64.880561
 20
140.091848
 30
0.0
 10
64.556542
 20
140.653064
 30
0.0
 10
64.030560
 20
140.956740
 30
0.0
  0
SPLINE
  5
12b
100
AcDbEntity
  8
Layer_1
 62
7
100
AcDbSpline
 70
8
 71
3
 72
8
 73
4
 74
0
 40
0
 40
0
 40
0
 40
0
 40
1
 40
1
 40
1
 40
1
 10
64.030560
 20
140.956740
 30
0.0
 10
63.504578
 20
141.260416
 30
0.0
 10
62.856541
 20
141.260416
 30
0.0
 10
62.330559
 20
140.956740
 30
0.0
  0
SPLINE
  5
12c
100
AcDbEntity
  8
Layer_1
 62
7
100
AcDbSpline
 70
8
 71
3
 72
8
 73
4
 74
0
 40
0
 40
0
 40
0
 40
0
 40
1
 40
1
 40
1
 40
1
 10
62.330559
 20
140.956740
 30
0.0
 10
61.804577
 20
140.653064
 30
0.0
 10
61.480559
 20
140.091848
 30
0.0
 10
61.480559
 20
139.484496
 30
0.0
  0
SPLINE
  5
12d
100
AcDbEntity
  8
Layer_1
 62
7
100
AcDbSpline
 70
8
 71
3
 72
8
 73
4
 74
0
 40
0
 40
0
 40
0
 40
0
 40
1
 40
1
 40
1
 40
1
 10
61.480559
 20
139.484496
 30
0.0
 10
61.480559
 20
138.877145
 30
0.0
 10
61.804577
 20
138.315928
 30
0.0
 10
62.330559
 20
138.012252
 30
0.0
  0
SPLINE
  5
12e
100
AcDbEntity
  8
Layer_1
 62
7
100
AcDbSpline
 70
8
 71
3
 72
8
 73
4
 74
0
 40
0
 40
0
 40
0
 40
0
 40
1
 40
1
 40
1
 40
1
 10
62.330559
 20
138.012252
 30
0.0
 10
62.856541
 20
137.708576
 30
0.0
 10
63.504578
 20
137.708576
 30
0.0
 10
64.030560
 20
138.012252
 30
0.0
  0
SPLINE
  5
12f
100
AcDbEntity
  8
Layer_1
 62
7
100
AcDbSpline
 70
8
 71
3
 72
8
 73
4
 74
0
 40
0
 40
0
 40
0
 40
0
 40
1
 40
1
 40
1
 40
1
 10
64.030560
 20
138.012252
 30
0.0
 10
64.556542
 20
138.315928
 30
0.0
 10
64.880561
 20
138.877145
 30
0.0
 10
64.880561
 20
139.484496
 30
0.0
  0
LWPOLYLINE
  5
130
100
AcDbEntity
  8
Layer_1
 62
7
100
AcDbPolyline
 90
2
 70
0
 10
64.880561
 20
143.692627
 30
0.0
 10
64.880561
 20
143.692627
 30
0.0
  0
LWPOLYLINE
  5
131
100
AcDbEntity
  8
Layer_1
 62
7
100
AcDbPolyline
 90
2
 70
0
 10
64.880561
 20
139.484496
 30
0.0
 10
64.880561
 20
139.484496
 30
0.0
  0
LWPOLYLINE
  5
132
100
AcDbEntity
  8
Layer_1
 62
7
100
AcDbPolyline
 90
6
 70
0
 10
54.822598
 20
123.956096
 30
0.0
 10
148.822599
 20
123.956096
 30
0.0
 10
148.822599
 20
169.956103
 30
0.0
 10
54.822598
 20
169.956103
 30
0.0
 10
54.822598
 20
123.956096
 30
0.0
 10
54.822598
 20
123.956096
 30
0.0
  0
LWPOLYLINE
  5
133
100
AcDbEntity
  8
Layer_1
 62
7
100
AcDbPolyline
 90
5
 70
0
 10
214.581932
 20
136.782140
 30
0.0
 10
221.821534
 20
136.782140
 30
0.0
 10
221.821534
 20
125.741746
 30
0.0
 10
214.581932
 20
125.741746
 30
0.0
 10
214.581932
 20
136.782140
 30
0.0
  0
LWPOLYLINE
  5
134
100
AcDbEntity
  8
Layer_1
 62
1
100
AcDbPolyline
 90
6
 70
0
 10
216.357897
 20
133.049220
 30
0.0
 10
219.808020
 20
129.576473
 30
0.0
 10
218.145174
 20
127.562958
 30
0.0
 10
218.145174
 20
134.757313
 30
0.0
 10
219.808020
 20
132.834294
 30
0.0
 10
216.357897
 20
129.452042
 30
0.0
  0
ENDSEC
  0
SECTION
  2
OBJECTS
  0
DICTIONARY
  5
C
330
0
100
AcDbDictionary
  3
ACAD_GROUP
350
D
  3
ACAD_MLINESTYLE
350
17
  0
DICTIONARY
  5
D
330
C
100
AcDbDictionary
  0
DICTIONARY
  5
1A
330
C
100
AcDbDictionary
  0
DICTIONARY
  5
17
330
C
100
AcDbDictionary
  3
STANDARD
350
18
  0
DICTIONARY
  5
19
330
C
100
AcDbDictionary
  0
ENDSEC
  0
EOF
